<svg xmlns="http://www.w3.org/2000/svg" viewBox="0 0 380 507" role="img" aria-label="برج نَسيم">
  <defs>
    <linearGradient id="g2" x1="0" y1="0" x2="0" y2="1">
      <stop offset="0" stop-color="#1F232B"/>
      <stop offset="1" stop-color="#0B0C10"/>
    </linearGradient>
  </defs>
  <rect width="380" height="507" fill="url(#g2)"/>
  <g stroke="#D4C5B9" stroke-opacity="0.25" stroke-width="1">
    <line x1="120" y1="0" x2="120" y2="507"/>
    <line x1="260" y1="0" x2="260" y2="507"/>
    <line x1="0" y1="120" x2="380" y2="120"/>
    <line x1="0" y1="260" x2="380" y2="260"/>
    <line x1="0" y1="380" x2="380" y2="380"/>
  </g>
  <polygon points="120,507 260,507 220,40 160,40" fill="#D4C5B9" fill-opacity="0.12" stroke="#D4C5B9" stroke-opacity="0.7" stroke-width="2"/>
  <g stroke="#D4C5B9" stroke-opacity="0.55" stroke-width="1.5">
    <line x1="160" y1="100" x2="220" y2="100"/>
    <line x1="155" y1="160" x2="225" y2="160"/>
    <line x1="150" y1="220" x2="230" y2="220"/>
    <line x1="145" y1="280" x2="235" y2="280"/>
    <line x1="140" y1="340" x2="240" y2="340"/>
    <line x1="135" y1="400" x2="245" y2="400"/>
    <line x1="130" y1="460" x2="250" y2="460"/>
  </g>
</svg>