<svg xmlns="http://www.w3.org/2000/svg" viewBox="0 0 380 507" role="img" aria-label="أقواس الوادي">
  <defs>
    <linearGradient id="g5" x1="0" y1="0" x2="0" y2="1">
      <stop offset="0" stop-color="#232019"/>
      <stop offset="1" stop-color="#0B0C10"/>
    </linearGradient>
  </defs>
  <rect width="380" height="507" fill="url(#g5)"/>
  <g stroke="#D4C5B9" stroke-opacity="0.4" fill="none" stroke-width="1.4">
    <path d="M0 420 Q190 320 380 430"/>
    <path d="M0 460 Q190 360 380 470"/>
    <path d="M0 500 Q190 400 380 505"/>
  </g>
  <g stroke="#D4C5B9" stroke-opacity="0.7" fill="#D4C5B9" fill-opacity="0.08" stroke-width="1.8">
    <path d="M40 360 L40 200 Q90 160 140 200 L140 360"/>
    <path d="M150 360 L150 220 Q200 180 250 220 L250 360"/>
    <path d="M260 360 L260 240 Q300 210 340 240 L340 360"/>
  </g>
  <g stroke="#D4C5B9" stroke-opacity="0.5" stroke-width="1">
    <line x1="40" y1="260" x2="140" y2="260"/>
    <line x1="40" y1="300" x2="140" y2="300"/>
    <line x1="150" y1="280" x2="250" y2="280"/>
    <line x1="150" y1="320" x2="250" y2="320"/>
  </g>
  <circle cx="305" cy="90" r="42" fill="#D4C5B9" fill-opacity="0.12" stroke="#D4C5B9" stroke-opacity="0.5" stroke-width="1.5"/>
</svg>