<svg xmlns="http://www.w3.org/2000/svg" viewBox="0 0 380 507" role="img" aria-label="مجمع كثبان الواحة">
  <defs>
    <linearGradient id="g1" x1="0" y1="0" x2="0" y2="1">
      <stop offset="0" stop-color="#3a2f24"/>
      <stop offset="1" stop-color="#0B0C10"/>
    </linearGradient>
    <linearGradient id="g1b" x1="0" y1="0" x2="1" y2="1">
      <stop offset="0" stop-color="#D4C5B9" stop-opacity="0.35"/>
      <stop offset="1" stop-color="#D4C5B9" stop-opacity="0"/>
    </linearGradient>
  </defs>
  <rect width="380" height="507" fill="url(#g1)"/>
  <circle cx="280" cy="120" r="70" fill="url(#g1b)"/>
  <g stroke="#D4C5B9" stroke-opacity="0.55" fill="none" stroke-width="2">
    <path d="M40 400 Q120 360 200 400 T360 380"/>
    <path d="M40 430 Q120 390 200 430 T360 410"/>
    <path d="M40 460 Q120 420 200 460 T360 440"/>
  </g>
  <g fill="#D4C5B9" fill-opacity="0.9">
    <rect x="70"  y="240" width="42" height="120"/>
    <rect x="130" y="200" width="42" height="160"/>
    <rect x="190" y="260" width="42" height="100"/>
    <rect x="250" y="220" width="42" height="140"/>
  </g>
  <g stroke="#0B0C10" stroke-width="2">
    <line x1="70"  y1="270" x2="112" y2="270"/>
    <line x1="70"  y1="300" x2="112" y2="300"/>
    <line x1="130" y1="230" x2="172" y2="230"/>
    <line x1="130" y1="270" x2="172" y2="270"/>
    <line x1="190" y1="290" x2="232" y2="290"/>
    <line x1="250" y1="250" x2="292" y2="250"/>
  </g>
</svg>